<?xml version="1.0" standalone="no"?>
<!DOCTYPE svg PUBLIC "-//W3C//DTD SVG 20010904//EN"
 "http://www.w3.org/TR/2001/REC-SVG-20010904/DTD/svg10.dtd">
<svg version="1.0" xmlns="http://www.w3.org/2000/svg"
 width="600.000000pt" height="600.000000pt" viewBox="0 0 600.000000 600.000000"
 preserveAspectRatio="xMidYMid meet">
<metadata>
Created by potrace 1.14, written by Peter Selinger 2001-2017
</metadata>
<g transform="translate(0.000000,600.000000) scale(0.100000,-0.100000)"
fill="#000000" stroke="none">
<path d="M4539 5515 c-61 -22 -120 -64 -201 -143 -131 -126 -199 -243 -317
-536 l-80 -200 -208 -109 c-884 -464 -1208 -643 -1413 -780 -105 -71 -300
-217 -399 -301 -46 -39 -97 -82 -114 -95 l-30 -25 -39 45 c-157 182 -183 494
-62 735 143 285 539 553 935 634 168 34 291 36 448 6 73 -14 149 -26 168 -26
30 0 34 3 31 22 -4 30 -50 45 -198 65 -356 47 -737 -36 -1074 -237 -390 -232
-566 -488 -566 -822 1 -179 55 -330 169 -466 l62 -73 -77 -84 c-332 -362 -440
-674 -319 -921 61 -124 181 -218 372 -289 374 -141 905 -153 1441 -34 51 12
96 19 98 16 7 -6 -66 -193 -145 -372 -230 -518 -512 -873 -783 -982 -128 -52
-253 -65 -368 -37 -128 30 -203 97 -241 217 -24 76 -33 89 -57 80 -20 -8 -9
-103 19 -160 44 -91 149 -174 269 -212 65 -20 201 -29 298 -20 533 50 938 508
1256 1419 l61 174 125 46 c475 175 823 393 1145 716 268 269 448 535 511 755
33 114 31 234 -6 312 -46 97 -149 162 -296 188 -94 16 -334 5 -446 -20 -191
-44 -420 -140 -583 -245 -38 -25 -71 -41 -73 -37 -11 31 205 881 235 927 5 7
64 47 133 89 207 129 271 175 354 254 86 83 155 180 180 254 22 64 21 172 -2
217 -31 63 -125 88 -213 55z m106 -162 c54 -54 -49 -210 -277 -420 -102 -93
-222 -185 -226 -173 -5 14 131 275 187 361 58 88 168 195 232 227 53 26 63 27
84 5z m-738 -825 c-2 -13 -30 -111 -61 -218 -32 -107 -89 -314 -127 -459 -38
-146 -72 -268 -76 -272 -5 -3 -102 -64 -218 -135 -447 -273 -686 -366 -980
-380 -142 -7 -262 13 -388 66 -141 58 -145 39 60 240 252 248 481 430 773 617
173 110 208 130 525 301 154 83 325 175 380 205 55 30 104 55 109 56 4 1 6 -9
3 -21z m839 -723 c142 -25 222 -70 269 -150 112 -190 -28 -510 -385 -879 -280
-290 -607 -493 -1033 -642 -55 -19 -101 -33 -102 -32 -1 2 15 75 36 163 71
296 208 918 251 1139 l43 220 90 42 c271 126 592 180 831 139z m-1187 -576
c-122 -480 -220 -822 -317 -1109 -44 -131 -19 -114 -217 -150 -172 -31 -284
-41 -475 -41 -504 1 -837 139 -941 391 -33 80 -34 246 -1 344 31 92 83 194
148 291 89 133 75 124 142 91 194 -96 426 -128 653 -90 275 46 618 212 950
459 68 50 125 91 126 90 1 0 -29 -125 -68 -276z"/>
</g>
</svg>
